; NON-PLATED HOLES START AT T1
; THROUGH (PLATED) HOLES START AT T100
M48
INCH
T100C0.044111
T101C0.031496
T102C0.044139
T103C0.040000
T104C0.038000
%
T100
X006221Y020806
X009221Y019806
X005222Y019806
X009221Y020806
X017222Y019806
X022222Y019806
X013222Y020806
X017222Y020806
X021222Y020806
X020222Y019806
X018222Y019806
X006221Y019806
X016222Y019806
X004221Y019806
X018222Y020806
X021222Y019806
X015222Y019806
X020222Y020806
X008222Y020806
X008222Y019806
X011222Y020806
X003222Y020806
X015222Y020806
X010222Y019806
X004221Y020806
X005222Y020806
X013222Y019806
X003222Y019806
X016222Y020806
X022222Y020806
X011222Y019806
X010222Y020806
T101
X027222Y016806
X005222Y011806
X003222Y014806
X004222Y012806
T102
X012222Y020806
X019222Y020806
X007222Y020806
X014222Y020806
X012222Y019806
X007222Y019806
X019222Y019806
X014222Y019806
T103
X016222Y007806
X008222Y007806
X015222Y007806
X013222Y007806
X012222Y007806
X014222Y014806
X015222Y014806
X018222Y007806
X012222Y014806
X009222Y007806
X013222Y014806
X019222Y007806
X017222Y007806
X014222Y007806
X016222Y014806
X010222Y007806
X011222Y014806
X011222Y007806
T104
X014222Y004806
X018222Y004806
X020222Y004806
X017222Y004806
X015222Y004806
X008222Y004806
X017222Y014806
X010222Y004806
X009222Y004806
X020222Y007806
X012222Y004806
X016222Y004806
X011222Y004806
X019222Y004806
X013222Y004806
T00
M30
