G04 MADE WITH FRITZING*
G04 WWW.FRITZING.ORG*
G04 DOUBLE SIDED*
G04 HOLES PLATED*
G04 CONTOUR ON CENTER OF CONTOUR VECTOR*
%ASAXBY*%
%FSLAX23Y23*%
%MOIN*%
%OFA0B0*%
%SFA1.0B1.0*%
%ADD10C,0.094488*%
%ADD11C,0.071889*%
%ADD12C,0.071917*%
%ADD13C,0.078000*%
%ADD14C,0.024000*%
%LNCOPPER0*%
G90*
G70*
G54D10*
X2722Y1681D03*
X522Y1081D03*
X422Y1281D03*
X322Y1481D03*
G54D11*
X322Y1981D03*
X422Y1981D03*
X522Y1981D03*
X622Y1981D03*
G54D12*
X722Y1981D03*
G54D11*
X822Y1981D03*
X922Y1981D03*
X1022Y1981D03*
X1122Y1981D03*
G54D12*
X1222Y1981D03*
G54D11*
X1322Y1981D03*
G54D12*
X1422Y1981D03*
G54D11*
X1522Y1981D03*
X1622Y1981D03*
X1722Y1981D03*
X1822Y1981D03*
G54D12*
X1922Y1981D03*
G54D11*
X2022Y1981D03*
X2122Y1981D03*
X2222Y1981D03*
X2222Y2081D03*
X2122Y2081D03*
X2022Y2081D03*
G54D12*
X1922Y2081D03*
G54D11*
X1822Y2081D03*
X1722Y2081D03*
X1622Y2081D03*
X1522Y2081D03*
G54D12*
X1422Y2081D03*
G54D11*
X1322Y2081D03*
G54D12*
X1222Y2081D03*
G54D11*
X1122Y2081D03*
X1022Y2081D03*
X922Y2081D03*
X822Y2081D03*
G54D12*
X722Y2081D03*
G54D11*
X622Y2081D03*
X522Y2081D03*
X422Y2081D03*
X322Y2081D03*
G54D13*
X2022Y781D03*
X1522Y781D03*
X1822Y781D03*
X1622Y781D03*
X1222Y781D03*
X1422Y781D03*
X1122Y781D03*
X1322Y781D03*
X1722Y781D03*
X1222Y1381D03*
X1722Y1381D03*
X1622Y1381D03*
X1922Y781D03*
X1522Y1381D03*
X1422Y1381D03*
X1122Y1381D03*
X1322Y1381D03*
X1022Y781D03*
X922Y781D03*
X822Y781D03*
X822Y481D03*
X922Y481D03*
X1022Y481D03*
X1122Y481D03*
X1222Y481D03*
X1322Y481D03*
X1422Y481D03*
X1522Y481D03*
X1622Y481D03*
X1722Y481D03*
X1822Y481D03*
X1922Y481D03*
X2022Y481D03*
G54D14*
X2695Y1681D02*
X1321Y1682D01*
D02*
X1321Y1682D02*
X1322Y1411D01*
D02*
X923Y1481D02*
X1095Y1394D01*
D02*
X349Y1481D02*
X923Y1481D01*
D02*
X1623Y1079D02*
X1622Y1351D01*
D02*
X549Y1081D02*
X1623Y1079D01*
D02*
X1522Y1280D02*
X449Y1281D01*
D02*
X1522Y1351D02*
X1522Y1280D01*
D02*
X822Y511D02*
X822Y751D01*
D02*
X922Y511D02*
X922Y751D01*
D02*
X1022Y511D02*
X1022Y751D01*
D02*
X1122Y511D02*
X1122Y751D01*
D02*
X1222Y511D02*
X1222Y751D01*
D02*
X1322Y511D02*
X1322Y751D01*
D02*
X1422Y511D02*
X1422Y751D01*
D02*
X1522Y511D02*
X1522Y751D01*
D02*
X1622Y511D02*
X1622Y751D01*
D02*
X1722Y511D02*
X1722Y751D01*
D02*
X1822Y511D02*
X1822Y751D01*
D02*
X1922Y511D02*
X1922Y751D01*
D02*
X2022Y511D02*
X2022Y751D01*
G04 End of Copper0*
M02*